<svg xmlns="http://www.w3.org/2000/svg" xmlns:xlink="http://www.w3.org/1999/xlink" width="1080" zoomAndPan="magnify" viewBox="0 0 810 809.999993" height="1080" preserveAspectRatio="xMidYMid meet" version="1.0"><path fill="#000000" d="M 266.191406 74.445312 C 224.566406 90.421875 182.457031 133.089844 166.671875 175.277344 C 155.027344 206.390625 154.683594 214.789062 154.683594 465.910156 L 154.683594 724.503906 L 278.140625 724.503906 L 276.242188 666.269531 C 274.367188 608.777344 274.460938 608.265625 283.671875 626.253906 C 302.539062 663.089844 343.3125 701.332031 386.4375 722.648438 C 452.144531 755.121094 529.960938 755.503906 597.648438 723.683594 L 622.199219 712.148438 L 622.199219 657.496094 C 622.199219 615.242188 620.21875 600.871094 613.457031 594.105469 C 601.640625 582.289062 600.363281 582.5625 563.496094 604.761719 C 511.605469 636.015625 475.925781 637.511719 429.636719 610.378906 C 339.210938 557.386719 359.519531 420.421875 461.433594 395.972656 C 497.398438 387.34375 523.363281 392.503906 561.816406 415.929688 C 598.210938 438.097656 600.660156 438.527344 612.988281 424.910156 C 620.207031 416.933594 622.199219 403.230469 622.199219 361.585938 L 622.199219 308.445312 L 593.039062 295.902344 C 525.433594 266.820312 442.34375 268.027344 379.019531 299.007812 C 348.300781 314.039062 298.820312 357.558594 282.382812 384.011719 C 275.21875 395.527344 274.644531 388.226562 277.128906 316.949219 C 280.136719 230.449219 284.328125 217.03125 314.511719 197.234375 C 327.65625 188.613281 347.308594 187.199219 475.839844 185.613281 L 622.199219 183.816406 L 622.199219 62.1875 L 459.402344 62.476562 C 307.839844 62.75 294.507812 63.574219 266.191406 74.445312 M -423.464844 880.351562 C -454.113281 887.589844 -470.070312 908.066406 -473.046875 943.984375 C -475.519531 973.796875 -476.214844 974.957031 -491.625 974.957031 C -506.59375 974.957031 -507.632812 976.40625 -507.632812 997.222656 C -507.632812 1018.25 -506.703125 1019.484375 -490.9375 1019.484375 L -474.238281 1019.484375 L -474.238281 1203.152344 L -418.582031 1203.152344 L -418.582031 1020.125 L -394.929688 1018.410156 C -371.96875 1016.75 -371.222656 1016.089844 -369.546875 995.828125 L -367.816406 974.957031 L -393.203125 974.957031 C -418.449219 974.957031 -418.582031 974.859375 -418.582031 955.671875 C -418.582031 934.457031 -407.441406 924.867188 -382.773438 924.867188 C -369.558594 924.867188 -368.492188 922.996094 -368.492188 899.820312 C -368.492188 875.160156 -368.769531 874.789062 -386.578125 875.34375 C -396.53125 875.660156 -413.128906 877.914062 -423.464844 880.351562 M -325.355469 880.785156 C -337.550781 887.890625 -338.457031 920.714844 -326.730469 930.449219 C -314.464844 940.628906 -289.769531 938.910156 -281.265625 927.28125 C -259.019531 896.859375 -292.441406 861.617188 -325.355469 880.785156 M 4.410156 900.332031 C -45.792969 922.046875 -74.300781 968.308594 -77.90625 1033.902344 C -83.433594 1134.59375 -37.710938 1198.457031 46.101562 1207.109375 C 78.132812 1210.414062 120.835938 1198.988281 141.78125 1181.503906 C 161.933594 1164.6875 182.511719 1130.234375 182.511719 1113.320312 C 182.511719 1098.03125 181.464844 1097.402344 156.074219 1097.457031 C 130.5 1097.515625 129.332031 1098.25 120.253906 1119.859375 C 104.179688 1158.125 51.640625 1169.691406 15.667969 1142.886719 C -11.023438 1122.988281 -20.492188 1098.734375 -20.546875 1050.101562 C -20.601562 998.039062 -9.011719 968.453125 17.878906 952.0625 C 50.835938 931.964844 103.050781 944.320312 116.847656 975.480469 C 123.421875 990.332031 126.363281 991.65625 152.8125 991.65625 L 181.613281 991.65625 L 175.988281 970.785156 C 168.996094 944.832031 142.210938 915.628906 112.941406 902.046875 C 85.59375 889.359375 31.753906 888.507812 4.410156 900.332031 M -218.21875 941.5625 C -218.21875 973.472656 -218.835938 974.957031 -232.132812 974.957031 C -244.65625 974.957031 -246.046875 977.183594 -246.046875 997.222656 C -246.046875 1017.066406 -244.582031 1019.484375 -232.558594 1019.484375 L -219.082031 1019.484375 L -217.253906 1094.507812 C -215.480469 1167.664062 -215.054688 1169.914062 -200.273438 1184.679688 C -187.59375 1197.347656 -179.1875 1200.199219 -148.792969 1202.132812 L -112.46875 1204.449219 L -112.46875 1181.535156 C -112.46875 1159.917969 -113.386719 1158.625 -128.773438 1158.625 C -157.957031 1158.625 -162.5625 1147.949219 -162.5625 1080.3125 L -162.5625 1019.484375 L -112.46875 1019.484375 L -112.46875 974.957031 L -162.5625 974.957031 L -162.5625 908.171875 L -218.21875 908.171875 Z M 1195.464844 941.5625 L 1195.464844 974.957031 L 1178.765625 974.957031 C 1163 974.957031 1162.070312 976.195312 1162.070312 997.222656 C 1162.070312 1018.25 1163 1019.484375 1178.765625 1019.484375 L 1195.464844 1019.484375 L 1195.464844 1088.691406 C 1195.464844 1126.757812 1197.863281 1164.207031 1200.789062 1171.910156 C 1208.074219 1191.066406 1233.894531 1203.152344 1267.539062 1203.152344 L 1295.644531 1203.152344 L 1295.644531 1180.886719 C 1295.644531 1160.21875 1294.53125 1158.625 1280.0625 1158.625 C 1254.132812 1158.625 1251.121094 1150.695312 1251.121094 1082.375 L 1251.121094 1019.484375 L 1295.644531 1019.484375 L 1295.644531 974.957031 L 1251.121094 974.957031 L 1251.121094 908.171875 L 1195.464844 908.171875 Z M 279.910156 976.882812 C 257.691406 987.082031 232.800781 1012.539062 223.472656 1034.609375 C 211.992188 1061.78125 213.75 1121.457031 226.792969 1147.015625 C 259.171875 1210.488281 340.742188 1227.632812 394.625 1182.296875 C 449.445312 1136.167969 445.40625 1036.035156 386.84375 989.445312 C 369.410156 975.574219 359.78125 972.375 331.1875 970.949219 C 310.070312 969.898438 290.105469 972.207031 279.910156 976.882812 M 552.628906 978.054688 C 543.445312 982.777344 531.941406 991.828125 527.058594 998.160156 C 518.4375 1009.347656 518.261719 1009.183594 520.730469 992.316406 L 523.28125 974.957031 L 466.359375 974.957031 L 466.359375 1203.152344 L 522.015625 1203.152344 L 522.015625 1134.410156 C 522.015625 1061.882812 527.765625 1033.886719 544.496094 1024.933594 C 560.753906 1016.234375 586.480469 1018.597656 600.710938 1030.109375 C 613.261719 1040.261719 613.929688 1044.375 615.652344 1121.941406 L 617.457031 1203.152344 L 673.285156 1203.152344 L 671.398438 1118.273438 C 669.785156 1045.824219 667.835938 1030.214844 658.097656 1011.648438 C 638.292969 973.90625 590.359375 958.640625 552.628906 978.054688 M 758.558594 979.863281 C 746.3125 985.484375 732.007812 994.910156 726.765625 1000.8125 C 698.199219 1032.984375 690.738281 1107.917969 711.785156 1151.378906 C 743.84375 1217.597656 852.066406 1225.28125 893.523438 1164.273438 C 912.058594 1136.996094 909.988281 1130.796875 882.34375 1130.796875 C 865.050781 1130.796875 856.84375 1133.667969 852.011719 1141.40625 C 848.367188 1147.238281 836.476562 1154.953125 825.589844 1158.542969 C 797.566406 1167.792969 766.683594 1152.613281 757.8125 1125.230469 L 751.496094 1105.75 L 823.425781 1102.96875 C 902.113281 1099.925781 905.808594 1098.261719 905.964844 1065.761719 C 906.308594 994.066406 827.5625 948.175781 758.558594 979.863281 M 997.691406 976.882812 C 973.449219 987.875 946.929688 1016.277344 939.292969 1039.421875 C 935.65625 1050.433594 933.632812 1077.683594 934.773438 1100.242188 C 936.574219 1136 938.984375 1143.769531 954.035156 1162.394531 C 979.925781 1194.425781 1003.203125 1205.878906 1042.40625 1205.878906 C 1066.023438 1205.878906 1081.5 1202.539062 1095.265625 1194.472656 C 1118.273438 1180.988281 1139.808594 1151.152344 1139.808594 1132.757812 C 1139.808594 1120.953125 1137.347656 1119.664062 1114.761719 1119.664062 C 1100.984375 1119.664062 1089.714844 1122.28125 1089.714844 1125.480469 C 1089.714844 1136.792969 1062.199219 1158.625 1047.949219 1158.625 C 1027.03125 1158.625 1003.84375 1144.984375 996.183594 1128.171875 C 985.042969 1103.714844 987.90625 1062.507812 1002.238281 1041.179688 C 1013.222656 1024.839844 1018.464844 1022.039062 1040.820312 1020.585938 C 1064.113281 1019.070312 1067.941406 1020.597656 1079.253906 1035.890625 C 1089.878906 1050.261719 1095.503906 1052.878906 1115.808594 1052.878906 C 1135.460938 1052.878906 1139.808594 1051.007812 1139.808594 1042.570312 C 1139.808594 1028.972656 1118.640625 998.335938 1099.394531 984.082031 C 1080.035156 969.738281 1022.4375 965.664062 997.691406 976.882812 M -335.097656 1089.054688 L -335.097656 1203.152344 L -279.441406 1203.152344 L -279.441406 974.957031 L -335.097656 974.957031 Z M 295.144531 1027.578125 C 275.667969 1043.960938 267.488281 1076.726562 274.089844 1111.902344 C 284.234375 1165.984375 348.964844 1176.734375 369.433594 1127.746094 C 398.125 1059.074219 344.171875 986.324219 295.144531 1027.578125 M 769.4375 1027.582031 C 761.925781 1035.09375 755.773438 1046.367188 755.773438 1052.628906 C 755.773438 1063.253906 759.113281 1064.007812 805.867188 1064.007812 C 862.929688 1064.007812 868.222656 1058.722656 839.6875 1030.1875 C 818.429688 1008.925781 789.175781 1007.839844 769.4375 1027.582031 M -459.246094 2002.597656 C -464.4375 2007.796875 -458.164062 2015.738281 -448.863281 2015.738281 C -444.453125 2015.738281 -440.84375 2011.980469 -440.84375 2007.390625 C -440.84375 1999.007812 -452.59375 1995.949219 -459.246094 2002.597656 M -863.835938 2065.832031 L -863.835938 2127.050781 L -824.875 2127.050781 C -802.613281 2127.050781 -785.917969 2124.664062 -785.917969 2121.488281 C -785.917969 2118.425781 -799.691406 2115.921875 -816.527344 2115.921875 L -847.140625 2115.921875 L -847.140625 2071.394531 L -819.308594 2071.394531 C -804.003906 2071.394531 -791.480469 2068.890625 -791.480469 2065.832031 C -791.480469 2062.769531 -804.003906 2060.265625 -819.308594 2060.265625 L -847.140625 2060.265625 L -847.140625 2015.738281 L -816.527344 2015.738281 C -799.691406 2015.738281 -785.917969 2013.234375 -785.917969 2010.171875 C -785.917969 2006.996094 -802.613281 2004.609375 -824.875 2004.609375 L -863.835938 2004.609375 Z M -418.582031 2065.367188 C -418.582031 2117.09375 -417.203125 2127.050781 -410.042969 2127.050781 C -402.808594 2127.050781 -401.75 2118.015625 -403.085938 2067.671875 C -404.1875 2026.292969 -406.777344 2007.597656 -411.625 2005.988281 C -416.914062 2004.234375 -418.582031 2018.492188 -418.582031 2065.367188 M -696.867188 2080.625 C -696.867188 2118.179688 -695.269531 2127.050781 -688.515625 2127.050781 C -681.964844 2127.050781 -680.167969 2119.398438 -680.167969 2091.554688 C -680.167969 2054.136719 -672.667969 2040.390625 -655.78125 2046.867188 C -644.179688 2051.320312 -639.535156 2069.964844 -642.070312 2101.878906 C -643.46875 2119.445312 -641.960938 2127.050781 -637.074219 2127.050781 C -632.242188 2127.050781 -630.078125 2116.84375 -630.078125 2094.054688 C -630.078125 2059.195312 -619.597656 2039.996094 -603.859375 2046.027344 C -599.410156 2047.738281 -594.722656 2049.132812 -593.445312 2049.132812 C -592.164062 2049.132812 -591.117188 2066.664062 -591.117188 2088.09375 C -591.117188 2119.015625 -589.390625 2127.054688 -582.769531 2127.054688 C -570.53125 2127.054688 -570.875 2053.476562 -583.164062 2041.179688 C -594.179688 2030.171875 -615.46875 2029.886719 -624.382812 2040.628906 C -630.171875 2047.601562 -632.332031 2047.675781 -638.875 2041.128906 C -643.296875 2036.710938 -657.265625 2033.601562 -671.714844 2033.816406 L -696.867188 2034.199219 Z M -541.136719 2040.917969 C -550.996094 2052.796875 -545.078125 2056.308594 -528.1875 2048.609375 C -510.222656 2040.421875 -496.5 2045.394531 -496.5 2060.089844 C -496.5 2068.742188 -500.128906 2071.394531 -511.957031 2071.394531 C -533.230469 2071.394531 -552.15625 2085.898438 -552.15625 2102.195312 C -552.15625 2119.890625 -529.574219 2135.121094 -512.078125 2129.226562 C -505.042969 2126.859375 -494.898438 2125.554688 -489.542969 2126.335938 C -474.84375 2128.472656 -475.222656 2055 -489.984375 2041.648438 C -502.742188 2030.097656 -531.816406 2029.6875 -541.136719 2040.917969 M -457.542969 2079.746094 C -457.542969 2113.871094 -455.605469 2127.058594 -450.585938 2127.0625 C -445.425781 2127.074219 -444.089844 2114.871094 -445.425781 2079.753906 C -446.414062 2053.730469 -449.550781 2032.4375 -452.382812 2032.4375 C -455.222656 2032.4375 -457.542969 2053.726562 -457.542969 2079.746094 M -773.421875 2078.351562 C -772.085938 2082.410156 -759.125 2086.011719 -742.34375 2086.992188 C -719.316406 2088.335938 -713.5625 2086.945312 -713.5625 2080.035156 C -713.5625 2073.261719 -720.257812 2071.394531 -744.636719 2071.394531 C -767.011719 2071.394531 -775.070312 2073.34375 -773.421875 2078.351562 M -528.503906 2086.210938 C -536.976562 2089.628906 -537.714844 2108.308594 -529.578125 2113.332031 C -526.34375 2115.332031 -517.578125 2115.429688 -510.097656 2113.554688 C -491.304688 2108.839844 -490.375 2082.308594 -509.023438 2082.964844 C -515.914062 2083.207031 -524.675781 2084.667969 -528.503906 2086.210938 M -852.703125 2683.621094 C -858.828125 2689.742188 -863.835938 2697.953125 -863.835938 2701.859375 C -863.835938 2716.324219 -846.105469 2733.578125 -824.609375 2740.015625 C -796.167969 2748.539062 -788.75 2757.171875 -796.859375 2772.3125 C -804.867188 2787.273438 -830.960938 2787.476562 -844.355469 2772.671875 C -856.023438 2759.78125 -863.835938 2758.316406 -863.835938 2769.023438 C -863.835938 2795.816406 -803.726562 2807.175781 -784.914062 2783.945312 C -779.34375 2777.066406 -774.785156 2768.511719 -774.785156 2764.945312 C -774.785156 2751.054688 -792.882812 2733.738281 -814.011719 2727.40625 C -842.453125 2718.882812 -849.871094 2710.25 -841.761719 2695.109375 C -833.855469 2680.324219 -811.050781 2680.140625 -798.539062 2694.75 C -787.496094 2707.652344 -780.351562 2709.082031 -780.351562 2698.398438 C -780.351562 2673.785156 -832.265625 2663.183594 -852.703125 2683.621094 M -568.855469 2733.710938 C -568.855469 2770.816406 -566.664062 2794.933594 -563.289062 2794.933594 C -560.207031 2794.933594 -557.722656 2780.222656 -557.722656 2761.933594 C -557.722656 2739.359375 -554.964844 2726.179688 -548.980469 2720.191406 C -527.585938 2698.804688 -513.199219 2714.753906 -513.199219 2759.871094 C -513.199219 2787.324219 -511.390625 2794.933594 -504.851562 2794.933594 C -494.160156 2794.933594 -493.289062 2737.628906 -503.667969 2717.015625 C -511.550781 2701.359375 -536.761719 2695.414062 -549.710938 2706.160156 C -556.433594 2711.738281 -557.722656 2709.5625 -557.722656 2692.648438 C -557.722656 2681.558594 -560.226562 2672.488281 -563.289062 2672.488281 C -566.664062 2672.488281 -568.855469 2696.605469 -568.855469 2733.710938 M -746.738281 2712.5 C -754.792969 2721.136719 -758.089844 2732.207031 -758.089844 2750.597656 C -758.089844 2781.214844 -744.835938 2796.785156 -718.789062 2796.785156 C -701.589844 2796.785156 -680.402344 2781.714844 -687.546875 2774.5625 C -689.714844 2772.402344 -694.449219 2773.59375 -698.074219 2777.21875 C -707.824219 2786.96875 -727.257812 2785.210938 -737.746094 2773.621094 C -754.308594 2755.324219 -749.058594 2750.40625 -712.960938 2750.40625 L -678.960938 2750.40625 L -682.785156 2735.101562 C -691.417969 2700.5 -724.628906 2688.761719 -746.738281 2712.5 M -663.472656 2748.503906 C -663.472656 2785.417969 -661.8125 2794.933594 -655.378906 2794.933594 C -649.273438 2794.933594 -646.878906 2785.84375 -645.640625 2757.945312 C -644.425781 2730.746094 -641.539062 2719.417969 -634.71875 2715.132812 C -617.382812 2704.246094 -607.816406 2720.007812 -607.816406 2759.433594 C -607.816406 2787.28125 -606.015625 2794.933594 -599.464844 2794.933594 C -592.859375 2794.933594 -591.117188 2786.992188 -591.117188 2756.835938 C -591.117188 2709.984375 -598.574219 2701.023438 -637.035156 2701.652344 L -663.472656 2702.082031 Z M -466.207031 2708.210938 C -472.144531 2712.550781 -475.191406 2717.914062 -472.976562 2720.136719 C -470.761719 2722.355469 -465.261719 2721.109375 -460.765625 2717.382812 C -447.984375 2706.773438 -427.214844 2712.246094 -425.148438 2726.753906 C -423.664062 2737.222656 -425.96875 2739.277344 -439.21875 2739.277344 C -447.933594 2739.277344 -460.628906 2743.179688 -467.433594 2747.941406 C -489.175781 2763.171875 -479.769531 2795.898438 -453.8125 2795.339844 C -448.207031 2795.21875 -435.492188 2794.910156 -425.539062 2794.65625 L -407.449219 2794.1875 L -407.449219 2756 C -407.449219 2728.703125 -409.945312 2715.316406 -416.195312 2709.0625 C -427.082031 2698.179688 -451.910156 2697.757812 -466.207031 2708.210938 M -737.746094 2721.628906 C -751.519531 2736.851562 -749.34375 2739.277344 -721.910156 2739.277344 C -696.226562 2739.277344 -689.796875 2731.875 -703.542969 2718.128906 C -713.191406 2708.480469 -727.144531 2709.914062 -737.746094 2721.628906 M -457.480469 2758.683594 C -466.375 2769.398438 -460.765625 2783.800781 -447.695312 2783.800781 C -434.71875 2783.800781 -424.148438 2773.3125 -424.148438 2760.425781 C -424.148438 2747.910156 -447.523438 2746.691406 -457.480469 2758.683594 M -967.589844 3184.246094 C -997.605469 3191.453125 -1023.847656 3211.542969 -1035.976562 3236.585938 C -1046.945312 3259.253906 -1047.496094 3269.480469 -1047.382812 3449.269531 C -1047.269531 3620.460938 -1046.300781 3640.238281 -1037.039062 3660.625 C -1024.222656 3688.847656 -997.695312 3711.515625 -970.8125 3717.222656 C -959.421875 3719.640625 -341.496094 3721.617188 402.355469 3721.617188 C 1664.433594 3721.617188 1755.964844 3720.984375 1772.078125 3712.164062 C 1797.511719 3698.230469 1823.214844 3666.339844 1828.285156 3642.425781 C 1830.730469 3630.882812 1832.730469 3539.835938 1832.730469 3440.113281 L 1832.730469 3258.78125 L 1816.035156 3231.898438 C 1805.648438 3215.175781 1790.921875 3200.621094 1777.074219 3193.386719 L 1754.8125 3181.746094 L 402.355469 3180.894531 C -341.496094 3180.429688 -957.972656 3181.9375 -967.589844 3184.246094 M 115.722656 3454.464844 L 115.722656 3529.601562 L 165.8125 3529.601562 C 215.53125 3529.601562 215.90625 3529.496094 215.90625 3515.6875 C 215.90625 3502.390625 214.417969 3501.773438 182.511719 3501.773438 L 149.117188 3501.773438 L 149.117188 3462.8125 L 182.511719 3462.8125 C 212.191406 3462.8125 215.90625 3461.578125 215.90625 3451.683594 C 215.90625 3441.785156 212.191406 3440.550781 182.511719 3440.550781 L 149.117188 3440.550781 L 149.117188 3401.589844 L 185.292969 3401.589844 C 217.757812 3401.589844 221.46875 3400.449219 221.46875 3390.460938 C 221.46875 3380.109375 217.757812 3379.328125 168.597656 3379.328125 L 115.722656 3379.328125 Z M 355.046875 3401.589844 C 355.046875 3412.722656 352.265625 3418.289062 346.699219 3418.289062 C 341.917969 3418.289062 338.351562 3423.304688 338.351562 3430.015625 C 338.351562 3438.152344 340.90625 3440.761719 346.699219 3438.535156 C 353.589844 3435.894531 355.046875 3441.621094 355.046875 3471.335938 C 355.046875 3513.277344 367.125 3531.535156 392.90625 3528.550781 C 412.140625 3526.320312 416.53125 3508.929688 398.503906 3506.375 C 387.023438 3504.75 385.480469 3501.160156 383.988281 3472.554688 C 382.46875 3443.457031 383.355469 3440.550781 393.726562 3440.550781 C 401.425781 3440.550781 405.136719 3436.933594 405.136719 3429.421875 C 405.136719 3422 401.425781 3418.289062 394.007812 3418.289062 C 385.347656 3418.289062 382.875 3414.578125 382.875 3401.589844 C 382.875 3387.492188 380.710938 3384.894531 368.960938 3384.894531 C 357.210938 3384.894531 355.046875 3387.492188 355.046875 3401.589844 M 277.605469 3417.875 C 273.277344 3420.613281 261.382812 3421.5 251.167969 3419.847656 L 232.601562 3416.832031 L 232.601562 3529.601562 L 246.515625 3529.601562 C 260.113281 3529.601562 260.429688 3528.660156 260.429688 3488.054688 C 260.429688 3451.777344 261.886719 3445.726562 271.917969 3440.363281 C 291.214844 3430.03125 298.722656 3442.25 300.546875 3486.957031 C 302.132812 3525.84375 302.546875 3526.863281 317.476562 3528.578125 C 332.765625 3530.34375 332.785156 3530.304688 332.785156 3494.628906 C 332.785156 3449.574219 324.285156 3424.578125 306.691406 3417.894531 C 290.078125 3411.578125 287.5625 3411.578125 277.605469 3417.875 M 508.855469 3424.261719 C 500.789062 3430.601562 494.1875 3439.367188 494.1875 3443.742188 C 494.1875 3454.28125 509.496094 3453.871094 520.324219 3443.039062 C 532.582031 3430.777344 552.226562 3434.964844 554.410156 3450.292969 C 555.910156 3460.894531 553.617188 3462.8125 539.464844 3462.8125 C 498.125 3462.8125 478.027344 3487.558594 496.488281 3515.726562 C 506.433594 3530.90625 525.902344 3533.871094 545.769531 3523.242188 C 554.691406 3518.464844 558.195312 3518.464844 559.785156 3523.242188 C 560.949219 3526.734375 566.703125 3529.601562 572.570312 3529.601562 C 582.242188 3529.601562 583.238281 3525.210938 583.238281 3482.699219 C 583.238281 3438.652344 582.34375 3435.089844 568.574219 3424.261719 C 560.507812 3417.914062 547.074219 3412.722656 538.714844 3412.722656 C 530.355469 3412.722656 516.917969 3417.914062 508.855469 3424.261719 M 421.835938 3473.945312 L 421.835938 3529.601562 L 435.75 3529.601562 C 449.242188 3529.601562 449.664062 3528.445312 449.664062 3491.320312 C 449.664062 3451.898438 453.6875 3443.585938 474.648438 3439.695312 C 491.351562 3436.59375 492.703125 3418.289062 476.226562 3418.289062 C 468.964844 3418.289062 460.015625 3421.292969 456.34375 3424.96875 C 451.148438 3430.160156 449.664062 3430.160156 449.664062 3424.96875 C 449.664062 3421.292969 443.402344 3418.289062 435.75 3418.289062 L 421.835938 3418.289062 Z M 599.9375 3473.945312 L 599.9375 3529.601562 L 613.851562 3529.601562 C 627.332031 3529.601562 627.765625 3528.417969 627.765625 3491.753906 C 627.765625 3451.136719 633.175781 3440.550781 653.921875 3440.550781 C 663.011719 3440.550781 666.722656 3437.324219 666.722656 3429.421875 C 666.722656 3416.675781 645.640625 3413.769531 634.445312 3424.96875 C 629.25 3430.160156 627.765625 3430.160156 627.765625 3424.96875 C 627.765625 3421.292969 621.503906 3418.289062 613.851562 3418.289062 L 599.9375 3418.289062 Z M 520.164062 3483.222656 C 518.121094 3485.261719 516.453125 3491.523438 516.453125 3497.136719 C 516.453125 3511.679688 547.367188 3511.234375 555.214844 3496.574219 C 558.382812 3490.652344 560.976562 3484.390625 560.976562 3482.660156 C 560.976562 3478.21875 524.660156 3478.71875 520.164062 3483.222656 M 1141.046875 3972.390625 C 1134.242188 3977.15625 1128.675781 3984.667969 1128.675781 3989.085938 C 1128.675781 3999.691406 1143.289062 3999.445312 1147.386719 3988.769531 C 1151.613281 3977.761719 1178.191406 3978.011719 1182.445312 3989.105469 C 1184.4375 3994.292969 1179.894531 4003.925781 1171.140625 4013.058594 C 1156.769531 4028.0625 1151.121094 4052.773438 1162.070312 4052.773438 C 1165.128906 4052.773438 1167.636719 4050.359375 1167.636719 4047.402344 C 1167.636719 4044.449219 1175.148438 4033.472656 1184.332031 4023.015625 C 1193.515625 4012.558594 1201.027344 3998.832031 1201.027344 3992.527344 C 1201.027344 3979.261719 1181.511719 3963.722656 1164.851562 3963.722656 C 1158.5625 3963.722656 1147.847656 3967.625 1141.046875 3972.390625 M -419.628906 4030.5 L -417.886719 4091.734375 L -382.058594 4091.734375 C -361.882812 4091.734375 -346.226562 4089.300781 -346.226562 4086.167969 C -346.226562 4083.109375 -360.003906 4080.601562 -376.839844 4080.601562 L -407.449219 4080.601562 L -407.449219 4036.664062 L -378.230469 4034.976562 C -342.105469 4032.898438 -342.113281 4023.371094 -378.246094 4022.675781 L -404.667969 4022.164062 L -405.503906 4001.292969 L -406.335938 3980.421875 L -376.28125 3980.421875 C -359.753906 3980.421875 -346.226562 3977.917969 -346.226562 3974.855469 C -346.226562 3971.695312 -362.46875 3969.285156 -383.796875 3969.277344 L -421.363281 3969.265625 Z M 950.574219 4030.511719 C 950.574219 4080.371094 952.078125 4091.734375 958.667969 4091.734375 C 964.773438 4091.734375 967.164062 4082.644531 968.40625 4054.746094 C 969.621094 4027.546875 972.507812 4016.21875 979.324219 4011.933594 C 996.664062 4001.046875 1006.230469 4016.808594 1006.230469 4056.238281 C 1006.230469 4084.082031 1008.027344 4091.734375 1014.578125 4091.734375 C 1021.039062 4091.734375 1022.910156 4084.503906 1022.84375 4059.730469 C 1022.726562 4014.632812 1013.921875 3999.734375 987.847656 4000.535156 C 968.761719 4001.125 967.269531 4000.011719 967.269531 3985.230469 C 967.269531 3974.773438 964.398438 3969.289062 958.921875 3969.289062 C 952.007812 3969.289062 950.574219 3979.804688 950.574219 4030.511719 M -320.320312 4007.296875 C -338.660156 4027.5625 -326.25 4046.390625 -288.8125 4055.097656 C -278.015625 4057.605469 -273.703125 4061.691406 -274.960938 4068.214844 C -277.332031 4080.535156 -294.132812 4083.554688 -310.773438 4074.648438 C -327.316406 4065.796875 -334.742188 4072.214844 -322.324219 4084.632812 C -311.179688 4095.777344 -278.476562 4096.917969 -266.042969 4086.601562 C -255.464844 4077.820312 -254.394531 4056.4375 -264.136719 4048.394531 C -267.957031 4045.234375 -279.851562 4040.386719 -290.5625 4037.621094 C -301.269531 4034.855469 -310.808594 4028.582031 -311.75 4023.679688 C -314.269531 4010.59375 -292.53125 4005.691406 -277.023438 4015.847656 C -260.824219 4026.460938 -254 4020.988281 -266.378906 4007.308594 C -278.359375 3994.070312 -308.34375 3994.0625 -320.320312 4007.296875 M -230.835938 4006.859375 C -263.09375 4042.652344 -234.378906 4107.402344 -193.195312 4091.746094 C -179.980469 4086.71875 -179.257812 4087.449219 -179.257812 4105.789062 C -179.257812 4116.425781 -176.753906 4125.128906 -173.691406 4125.128906 C -170.304688 4125.128906 -168.128906 4100.082031 -168.128906 4061.125 C -168.128906 4022.164062 -170.304688 3997.117188 -173.691406 3997.117188 C -176.753906 3997.117188 -179.257812 4000.125 -179.257812 4003.796875 C -179.257812 4008.992188 -180.746094 4008.992188 -185.9375 4003.796875 C -195.765625 3993.96875 -220.757812 3995.671875 -230.835938 4006.859375 M -140.296875 4038.734375 C -140.296875 4076.980469 -139.175781 4081.082031 -126.382812 4089.464844 C -113.492188 4097.90625 -111.445312 4097.90625 -98.554688 4089.464844 C -90.902344 4084.449219 -84.640625 4082.90625 -84.640625 4086.042969 C -84.640625 4089.175781 -82.136719 4091.734375 -79.074219 4091.734375 C -75.804688 4091.734375 -73.511719 4072.253906 -73.511719 4044.425781 C -73.511719 4016.597656 -75.804688 3997.117188 -79.074219 3997.117188 C -82.136719 3997.117188 -84.640625 4011.0625 -84.640625 4028.097656 C -84.640625 4063.285156 -91.683594 4080.605469 -105.984375 4080.605469 C -123.300781 4080.605469 -129.167969 4068.347656 -129.167969 4032.183594 C -129.167969 4012.519531 -131.609375 3997.117188 -134.734375 3997.117188 C -137.949219 3997.117188 -140.296875 4014.699219 -140.296875 4038.734375 M -35.726562 4003.007812 C -47.414062 4009.820312 -56.519531 4040.664062 -52.71875 4060.554688 C -48.777344 4081.164062 -24.90625 4098.859375 -6.960938 4094.46875 C 9.6875 4090.394531 24.914062 4076.992188 19.292969 4071.363281 C 17.125 4069.207031 12.390625 4070.394531 8.765625 4074.019531 C -1.734375 4084.523438 -27.847656 4081.988281 -34.355469 4069.839844 C -44.863281 4050.203125 -41.128906 4047.210938 -6.121094 4047.210938 L 27.878906 4047.210938 L 24.054688 4031.90625 C 16.359375 4001.054688 -10.285156 3988.175781 -35.726562 4003.007812 M 51.46875 4010.78125 C 26.511719 4035.734375 36.449219 4085.996094 67.898438 4093.890625 C 84.65625 4098.097656 109.273438 4089.386719 113.769531 4077.664062 C 118.851562 4064.425781 111.4375 4061.023438 100.011719 4071.359375 C 77.476562 4091.757812 54.5 4079.203125 54.5 4046.492188 C 54.5 4012.414062 78.578125 3997.242188 97.535156 4019.382812 C 102.777344 4025.503906 109.011719 4030.511719 111.390625 4030.511719 C 119.414062 4030.511719 115.804688 4015.617188 105.542969 4006.332031 C 90.792969 3992.976562 67.335938 3994.910156 51.46875 4010.78125 M 147.941406 4004.707031 C 134.316406 4015.0625 126.585938 4038.910156 130.503906 4058.507812 C 135.011719 4081.042969 158.105469 4099.015625 176.707031 4094.46875 C 193.351562 4090.394531 208.582031 4076.992188 202.960938 4071.363281 C 200.792969 4069.207031 196.058594 4070.398438 192.433594 4074.019531 C 181.933594 4084.523438 155.816406 4081.988281 149.3125 4069.839844 C 138.804688 4050.203125 142.539062 4047.210938 177.546875 4047.210938 L 211.546875 4047.210938 L 207.722656 4031.90625 C 199.832031 4000.28125 171.023438 3987.171875 147.941406 4004.707031 M 227.035156 4033.664062 C 227.035156 4080.375 232.96875 4091.734375 257.378906 4091.734375 C 267.730469 4091.734375 277.460938 4088.605469 279.007812 4084.777344 C 281.25 4079.210938 281.902344 4079.210938 282.253906 4084.777344 C 282.492188 4088.605469 285.828125 4091.734375 289.648438 4091.734375 C 294.726562 4091.742188 296.363281 4079.355469 295.710938 4045.984375 C 294.601562 3989.632812 283.929688 3980.382812 281.5625 4033.730469 C 279.828125 4072.929688 271.488281 4086.035156 252.839844 4078.882812 C 245.601562 4076.105469 243.734375 4067.351562 243.734375 4036.25 C 243.734375 4005.175781 242.011719 3997.117188 235.382812 3997.117188 C 228.8125 3997.117188 227.035156 4004.886719 227.035156 4033.664062 M 370.070312 4007.023438 C 351.480469 4027.566406 363.695312 4046.347656 401.332031 4055.097656 C 412.128906 4057.605469 416.441406 4061.691406 415.183594 4068.214844 C 412.8125 4080.535156 396.011719 4083.554688 379.367188 4074.648438 C 363.960938 4066.40625 356.058594 4071.199219 365.773438 4082.898438 C 375.234375 4094.300781 402.332031 4099.191406 415.878906 4091.945312 C 430.042969 4084.359375 436.515625 4060.980469 427.460938 4050.066406 C 423.753906 4045.59375 412 4040.300781 401.351562 4038.304688 C 380.382812 4034.371094 370.96875 4021.246094 383.453125 4013.335938 C 394.925781 4006.074219 403.261719 4007.171875 413.351562 4017.261719 C 424.355469 4028.265625 432.066406 4022.476562 423.855469 4009.375 C 415.191406 3995.539062 381.785156 3994.078125 370.070312 4007.023438 M 449.664062 4035.015625 C 449.664062 4075.816406 456.941406 4092.332031 474.8125 4092.082031 C 480.882812 4091.992188 493.976562 4091.710938 503.929688 4091.457031 L 522.015625 4090.988281 L 522.015625 4044.054688 C 522.015625 4006.699219 520.363281 3997.117188 513.925781 3997.117188 C 507.820312 3997.117188 505.425781 4006.207031 504.183594 4034.109375 C 502.453125 4072.917969 494.054688 4086.015625 475.464844 4078.882812 C 468.230469 4076.105469 466.359375 4067.351562 466.359375 4036.25 C 466.359375 4005.179688 464.640625 3997.117188 458.011719 3997.117188 C 451.410156 3997.117188 449.664062 4005.039062 449.664062 4035.015625 M 554.019531 4003.128906 C 548.664062 4006.253906 544.28125 4012.574219 544.28125 4017.1875 C 544.28125 4024.40625 546.523438 4024.25 560.359375 4016.082031 C 579.007812 4005.0625 591.558594 4008.027344 595.863281 4024.472656 C 598.496094 4034.558594 596.414062 4036.078125 579.933594 4036.078125 C 543.292969 4036.078125 525.644531 4071.78125 553.324219 4089.921875 C 566.953125 4098.847656 569.003906 4098.875 583.933594 4090.304688 C 592.734375 4085.257812 599.9375 4083.507812 599.9375 4086.429688 C 599.9375 4089.347656 602.441406 4091.734375 605.503906 4091.734375 C 615.140625 4091.734375 612.335938 4015.882812 602.324219 4005.863281 C 592.441406 3995.984375 568.609375 3994.636719 554.019531 4003.128906 M 687.597656 4003.128906 C 681.769531 4006.523438 677.855469 4015.464844 677.855469 4025.398438 C 677.855469 4036.183594 681.261719 4043.191406 687.597656 4045.421875 C 724.980469 4058.585938 733.230469 4063.738281 730.078125 4071.949219 C 726.238281 4081.957031 699.785156 4083.609375 690.585938 4074.414062 C 687.183594 4071.007812 681.335938 4069.238281 677.601562 4070.484375 C 668.050781 4073.667969 685.886719 4090.746094 703.328125 4095.125 C 721.636719 4099.714844 744.644531 4084.195312 744.644531 4067.242188 C 744.644531 4051.210938 735.222656 4042.820312 711.996094 4038.175781 C 690.878906 4033.953125 685.648438 4027.328125 694.753906 4016.355469 C 703.492188 4005.828125 716.304688 4006.058594 728.347656 4016.960938 C 740.773438 4028.207031 747.894531 4017.863281 735.949219 4005.917969 C 726.019531 3995.988281 702.210938 3994.621094 687.597656 4003.128906 M 772.878906 4011.785156 C 749.242188 4041.832031 766.460938 4097.300781 799.433594 4097.300781 C 812.757812 4097.300781 838.042969 4077.566406 832.207031 4071.714844 C 829.863281 4069.363281 824.980469 4070.398438 821.355469 4074.019531 C 809.328125 4086.046875 785.96875 4081.867188 778.933594 4066.429688 C 775.378906 4058.628906 772.472656 4051.117188 772.472656 4049.730469 C 772.472656 4048.34375 787.5 4047.210938 805.867188 4047.210938 C 834.746094 4047.210938 839.261719 4045.808594 839.261719 4036.828125 C 839.261719 4018.988281 817.808594 3997.117188 800.300781 3997.117188 C 789.765625 3997.117188 780.527344 4002.0625 772.878906 4011.785156 M 855.957031 4044.425781 C 855.957031 4082.105469 857.605469 4091.734375 864.050781 4091.734375 C 870.15625 4091.734375 872.546875 4082.644531 873.789062 4054.746094 C 875.003906 4027.546875 877.890625 4016.21875 884.710938 4011.933594 C 902.046875 4001.046875 911.613281 4016.808594 911.613281 4056.238281 C 911.613281 4084.082031 913.410156 4091.734375 919.960938 4091.734375 C 931.878906 4091.734375 931.628906 4026.601562 919.644531 4009.492188 C 910.222656 3996.03125 889.957031 3993.171875 879.332031 4003.796875 C 874.140625 4008.988281 872.652344 4008.988281 872.652344 4003.796875 C 872.652344 4000.125 868.898438 3997.117188 864.304688 3997.117188 C 857.539062 3997.117188 855.957031 4006.085938 855.957031 4044.425781 M 1054.929688 4003.128906 C 1044.917969 4008.960938 1041.355469 4024.945312 1050.078125 4024.945312 C 1052.757812 4024.945312 1058.074219 4021.191406 1061.886719 4016.597656 C 1071.542969 4004.964844 1088.21875 4006.179688 1095.085938 4019.015625 C 1103.597656 4034.914062 1102.660156 4036.078125 1081.367188 4036.078125 C 1044.226562 4036.078125 1026.3125 4071.625 1054.234375 4089.921875 C 1067.863281 4098.847656 1069.914062 4098.875 1084.84375 4090.304688 C 1093.644531 4085.257812 1100.847656 4083.507812 1100.847656 4086.429688 C 1100.847656 4089.347656 1103.351562 4091.734375 1106.414062 4091.734375 C 1116.050781 4091.734375 1113.246094 4015.878906 1103.234375 4005.863281 C 1093.351562 3995.984375 1069.519531 3994.636719 1054.929688 4003.128906 M -220.683594 4020.621094 C -237.640625 4044.828125 -227.867188 4080.605469 -204.304688 4080.605469 C -180.828125 4080.605469 -169.316406 4035.683594 -188 4016.992188 C -200.097656 4004.90625 -210.480469 4006.058594 -220.683594 4020.621094 M -22.089844 4011.957031 C -25.953125 4013.515625 -31.679688 4019.574219 -34.8125 4025.429688 C -40.03125 4035.1875 -38.402344 4036.078125 -15.265625 4036.078125 C 11.417969 4036.078125 15.539062 4031.308594 1.230469 4016.992188 C -7.90625 4007.859375 -10.519531 4007.296875 -22.089844 4011.957031 M 161.578125 4011.957031 C 157.714844 4013.515625 151.988281 4019.574219 148.855469 4025.429688 C 143.632812 4035.1875 145.265625 4036.078125 168.402344 4036.078125 C 195.082031 4036.078125 199.207031 4031.308594 184.898438 4016.992188 C 175.757812 4007.859375 173.148438 4007.296875 161.578125 4011.957031 M 790.5 4011.957031 C 786.636719 4013.515625 780.910156 4019.574219 777.777344 4025.429688 C 772.554688 4035.1875 774.1875 4036.078125 797.324219 4036.078125 C 815.777344 4036.078125 822.5625 4033.886719 822.5625 4027.925781 C 822.5625 4021.199219 805.527344 4007.125 799.277344 4008.691406 C 798.308594 4008.929688 794.355469 4010.402344 790.5 4011.957031 M 563.917969 4054.75 C 550.140625 4064.832031 556.605469 4080.605469 574.515625 4080.605469 C 588.863281 4080.605469 603.300781 4062.722656 597.082031 4052.660156 C 592.28125 4044.894531 575.992188 4045.921875 563.917969 4054.75 M 1064.832031 4054.75 C 1051.394531 4064.574219 1057.398438 4080.605469 1074.515625 4080.605469 C 1090.019531 4080.605469 1100.847656 4070.996094 1100.847656 4057.226562 C 1100.847656 4045.042969 1080.058594 4043.621094 1064.832031 4054.75 M 1154.410156 4078.03125 C 1152.515625 4082.957031 1154.726562 4087.972656 1159.617188 4089.847656 C 1170.511719 4094.027344 1175.476562 4089.003906 1171.277344 4078.058594 C 1167.054688 4067.050781 1158.628906 4067.035156 1154.410156 4078.03125 " fill-opacity="1" fill-rule="evenodd"/></svg>